<svg width="51" height="50" viewBox="0 0 51 50" fill="none" xmlns="http://www.w3.org/2000/svg">
<path fill-rule="evenodd" clip-rule="evenodd" d="M0 42.3446C7.49313 46.4274 14.1921 49.9379 25.3439 49.9994C34.1404 50.0486 45.3953 46.9043 51 42.2954C50.7242 41.0247 46.5168 34.4867 45.5438 33.4345C44.0464 33.6006 42.5975 34.8836 41.2244 35.5143C30.6 40.3909 20.3333 40.2248 9.66348 35.3297C7.83566 34.4898 6.82324 33.3607 5.04999 32.9761C3.87085 35.5143 0.369807 40.0371 0 42.3446Z" fill="#0F0000"/>
<path d="M16.2503 35.662C17.7568 34.5144 25.3227 21.0477 26.8686 18.5279C27.975 16.7219 31.7609 11.4454 31.2093 9.53782C30.8364 8.24561 26.4503 1.37228 25.7501 1L12.0915 22.3953C9.34824 27.0165 9.13302 25.2659 13.1281 31.407C13.9769 32.7023 14.8499 34.7882 16.2503 35.662Z" fill="#FF5500" stroke="#FF5500" stroke-width="0.216" stroke-miterlimit="22.9256"/>
</svg>
