<svg width="114" height="76" viewBox="0 0 114 76" fill="none" xmlns="http://www.w3.org/2000/svg">
<g clip-path="url(#clip0_286_115)">
<path fill-rule="evenodd" clip-rule="evenodd" d="M38.5039 31.7662C44.3612 34.8996 49.5978 37.5939 58.3151 37.6411C65.1913 37.6789 73.9891 35.2656 78.3703 31.7285C78.1546 30.7532 74.8658 25.7355 74.1052 24.928C72.9347 25.0555 71.8021 26.0401 70.7287 26.5242C62.4237 30.2668 54.3983 30.1393 46.0578 26.3825C44.629 25.7379 43.8376 24.8713 42.4514 24.5762C41.5297 26.5242 38.793 29.9953 38.5039 31.7662Z" fill="black"/>
<path fill-rule="evenodd" clip-rule="evenodd" d="M24.9055 49.2893L24.5951 46.8737L20.7068 46.902L20.6665 62.2527C20.6689 62.8808 19.6334 65.2184 25.0572 63.9646C25.178 57.8087 23.799 51.0956 28.0474 50.2149C34.3431 48.9115 32.6537 54.7391 32.6845 64.0142L37.1154 64.0756C37.2268 58.6068 36.0018 51.7001 39.5773 50.3707C48.2377 47.1499 43.4135 62.0614 44.982 63.8158C45.4251 64.3117 48.3585 64.1322 49.176 63.941C49.2921 58.8453 50.2091 49.5514 47.2638 47.3719C45.6858 46.2054 43.0343 46.196 41.2762 46.7414C38.9352 47.4663 38.1603 48.9492 36.978 49.4758C35.1487 47.6647 34.8834 46.314 31.0922 46.4179C27.038 46.5313 27.0902 48.5714 24.9055 49.2893Z" fill="black"/>
<path fill-rule="evenodd" clip-rule="evenodd" d="M68.9635 63.9244C69.0227 61.686 68.4848 58.5313 68.4967 55.778C68.5061 53.0767 68.6768 49.5655 68.4114 46.954C65.4211 46.6989 67.575 47.8914 62.2981 46.5218C60.258 45.9929 58.1018 46.0779 56.2323 46.8548C46.399 50.9445 50.1238 68.0519 62.2958 64.4392C65.1605 63.5915 66.4447 64.5171 68.9635 63.9244ZM64.0681 50.3211L64.0918 60.2857C60.1964 63.3483 54.9694 61.2468 55.0073 55.7851C55.0404 50.5856 59.6562 47.3223 64.0681 50.3211Z" fill="black"/>
<path fill-rule="evenodd" clip-rule="evenodd" d="M18.2947 63.9929L17.944 50.536C17.9606 44.3778 17.3635 48.1015 12.9752 46.9752C9.33098 46.0401 5.96159 45.4545 2.66329 49.0366C-0.601846 52.5832 -1.17289 58.7273 2.68461 62.5077C6.94255 66.68 11.9682 64.0614 13.7548 63.9976C15.3328 63.941 16.5768 64.281 18.2947 63.9929ZM13.4728 50.2338C13.6363 52.1582 14.0273 59.3294 13.1814 60.425C11.608 62.4652 7.10367 61.8253 5.47348 59.7072C3.56132 57.2184 4.09445 50.0945 8.86893 49.3412C11.101 48.987 12.0037 49.6765 13.4728 50.2338Z" fill="#FF5500"/>
<path fill-rule="evenodd" clip-rule="evenodd" d="M51.2066 26.6375C52.3843 25.7568 58.2985 15.4215 59.5069 13.4876C60.3718 12.1015 63.3312 8.05195 62.9 6.58796C62.6085 5.59622 59.1799 0.321133 58.6326 0.035419L47.9557 16.4557C45.8114 20.0024 45.6431 18.6588 48.7661 23.3719C49.4295 24.366 50.1119 25.9669 51.2066 26.6375Z" fill="#FF5500"/>
<path d="M51.2066 26.6375C52.3843 25.7568 58.2985 15.4215 59.5069 13.4876C60.3718 12.1015 63.3312 8.05195 62.9 6.58796C62.6085 5.59622 59.1799 0.321133 58.6326 0.035419L47.9557 16.4557C45.8114 20.0024 45.6431 18.6588 48.7661 23.3719C49.4295 24.366 50.1119 25.9669 51.2066 26.6375Z" stroke="#FF5500" stroke-width="0.216" stroke-miterlimit="22.9256"/>
<path fill-rule="evenodd" clip-rule="evenodd" d="M98.2406 50.3613L105.977 50.477C105.809 52.7674 97.5345 62.3495 97.4682 64.2385L112.59 64.281C113.024 63.4947 113.495 61.9221 113.374 60.8052L104.896 60.8099C105.058 57.5703 112.604 50 113.216 47.0791L99.051 47.0673L98.2406 50.3613Z" fill="#FF5500"/>
<path fill-rule="evenodd" clip-rule="evenodd" d="M87.0923 46.732L84.4077 46.8619L84.384 50.1677L86.9951 50.3967C87.6159 52.7013 86.9738 57.464 87.3032 60.2243C87.86 64.902 89.2035 64.255 93.9069 64.0685C93.1415 61.6859 91.1038 63.8961 91.7791 50.536L94.6414 50.366L94.8073 46.9138C93.8619 46.7839 92.3288 47.0531 91.9023 46.3613C91.163 45.1617 93.4804 42.0472 87.2724 43.2845L87.0923 46.732Z" fill="black"/>
<path fill-rule="evenodd" clip-rule="evenodd" d="M75.2047 46.9587C74.1716 46.7721 72.8944 46.791 71.7831 46.954C71.0628 48.4864 71.4988 63.2775 71.6884 64.0213L75.7781 64.0614C76.5126 51.5041 73.3351 51.719 82.268 50.954L82.4363 46.5832C80.2895 46.2597 78.7446 47.0744 77.503 48.0685C74.8421 50.2007 75.5388 49.6812 75.2047 46.9587Z" fill="black"/>
<path d="M107.633 74.0449C107.633 74.5195 107.735 74.876 107.937 75.1122C108.138 75.3483 108.377 75.464 108.652 75.464C108.929 75.464 109.164 75.3507 109.358 75.1263C109.55 74.902 109.647 74.5596 109.647 74.0968C109.647 73.5891 109.548 73.2161 109.351 72.9799C109.154 72.7414 108.91 72.6234 108.621 72.6234C108.339 72.6234 108.105 72.7367 107.915 72.9658C107.728 73.1948 107.633 73.5537 107.633 74.0449ZM109.633 75.9008V75.4286C109.396 75.7946 109.05 75.9788 108.591 75.9788C108.292 75.9788 108.019 75.8985 107.771 75.7332C107.522 75.5703 107.328 75.3436 107.19 75.0508C107.053 74.758 106.984 74.4227 106.984 74.0425C106.984 73.6718 107.046 73.3365 107.169 73.0342C107.294 72.7344 107.479 72.5006 107.728 72.34C107.974 72.1795 108.254 72.0992 108.56 72.0992C108.785 72.0992 108.986 72.1464 109.162 72.2409C109.337 72.3353 109.479 72.4605 109.59 72.6116V70.7651H110.223V75.8985H109.633V75.9008ZM103.631 74.0425C103.631 74.5171 103.735 74.8737 103.944 75.1098C104.152 75.3459 104.415 75.464 104.735 75.464C105.051 75.464 105.311 75.3459 105.522 75.1074C105.731 74.869 105.835 74.5077 105.835 74.0213C105.835 73.5632 105.728 73.2137 105.52 72.9799C105.309 72.7438 105.048 72.6257 104.738 72.6257C104.42 72.6257 104.157 72.7438 103.946 72.9776C103.735 73.2137 103.631 73.5679 103.631 74.0425ZM102.984 74.0401C102.984 73.353 103.176 72.843 103.56 72.5124C103.88 72.2385 104.273 72.0992 104.735 72.0992C105.247 72.0992 105.667 72.2668 105.994 72.6021C106.318 72.9351 106.482 73.3979 106.482 73.9882C106.482 74.4652 106.411 74.843 106.266 75.1145C106.122 75.3884 105.913 75.601 105.636 75.7521C105.361 75.9032 105.06 75.9788 104.735 75.9788C104.212 75.9788 103.79 75.8135 103.468 75.4782C103.145 75.1476 102.984 74.6682 102.984 74.0401ZM99.6292 74.0425C99.6292 74.5171 99.7334 74.8737 99.9419 75.1098C100.15 75.3459 100.413 75.464 100.733 75.464C101.048 75.464 101.309 75.3459 101.52 75.1074C101.729 74.869 101.833 74.5077 101.833 74.0213C101.833 73.5632 101.726 73.2137 101.518 72.9799C101.307 72.7438 101.046 72.6257 100.736 72.6257C100.418 72.6257 100.155 72.7438 99.9443 72.9776C99.7334 73.2137 99.6292 73.5679 99.6292 74.0425ZM98.9823 74.0401C98.9823 73.353 99.1742 72.843 99.5581 72.5124C99.878 72.2385 100.271 72.0992 100.733 72.0992C101.245 72.0992 101.665 72.2668 101.992 72.6021C102.316 72.9351 102.48 73.3979 102.48 73.9882C102.48 74.4652 102.409 74.843 102.264 75.1145C102.119 75.3884 101.911 75.601 101.634 75.7521C101.359 75.9032 101.058 75.9788 100.733 75.9788C100.21 75.9788 99.7879 75.8135 99.4657 75.4782C99.1434 75.1476 98.9823 74.6682 98.9823 74.0401ZM94.94 75.9008V70.7674H98.416V71.3695H95.6248V72.9681H98.0416V73.5703H95.6248V75.9008H94.94ZM92.2009 75.3388L92.2862 75.8961C92.1085 75.9339 91.9497 75.9528 91.8099 75.9528C91.5801 75.9528 91.4024 75.9174 91.2768 75.8442C91.1512 75.771 91.0612 75.6765 91.0114 75.5584C90.9593 75.4404 90.9356 75.1924 90.9356 74.8123V72.6682H90.4688V72.1795H90.9356V71.2586L91.5682 70.8808V72.1795H92.2009V72.6682H91.5682V74.8477C91.5682 75.0272 91.5801 75.1452 91.6014 75.1948C91.6227 75.2468 91.6583 75.2869 91.7104 75.3176C91.7601 75.3483 91.8336 75.3625 91.926 75.3625C91.9947 75.3648 92.0871 75.3554 92.2009 75.3388ZM86.8245 75.9008V72.1795H87.3932V72.7084C87.6657 72.3023 88.0614 72.1015 88.5803 72.1015C88.8054 72.1015 89.0116 72.1417 89.2011 72.222C89.3883 72.3022 89.5305 72.4085 89.6253 72.5384C89.7177 72.6683 89.784 72.8241 89.8219 73.0036C89.8456 73.1216 89.8575 73.3247 89.8575 73.6175V75.9032H89.2248V73.6411C89.2248 73.3837 89.2011 73.1924 89.1514 73.0649C89.1016 72.9374 89.0139 72.8359 88.8907 72.7603C88.7651 72.6848 88.6182 72.647 88.45 72.647C88.1823 72.647 87.95 72.732 87.7534 72.902C87.5567 73.072 87.4619 73.3955 87.4619 73.8701V75.9008H86.8245ZM85.2109 74.0378C84.9811 74.1299 84.6351 74.2102 84.1755 74.2739C83.9148 74.3117 83.73 74.3518 83.621 74.3991C83.512 74.4463 83.4291 74.5148 83.3722 74.6021C83.313 74.6919 83.2846 74.791 83.2846 74.902C83.2846 75.0673 83.3485 75.209 83.4765 75.32C83.6044 75.4309 83.7916 75.4876 84.038 75.4876C84.2821 75.4876 84.4977 75.4357 84.6897 75.3294C84.8792 75.2231 85.019 75.0791 85.109 74.8973C85.1778 74.7556 85.2109 74.5455 85.2109 74.2692V74.0378ZM85.2607 75.4357C85.0261 75.6364 84.7986 75.7757 84.583 75.8583C84.365 75.941 84.1328 75.9811 83.884 75.9811C83.4741 75.9811 83.159 75.8819 82.9386 75.6812C82.7182 75.4829 82.6069 75.2279 82.6069 74.9185C82.6069 74.7367 82.6495 74.5714 82.7325 74.4203C82.8154 74.2692 82.9268 74.1511 83.0595 74.059C83.1945 73.9693 83.3462 73.8985 83.5144 73.8512C83.64 73.8182 83.8272 73.7875 84.0783 73.7568C84.5901 73.6978 84.9669 73.6246 85.2086 73.5396C85.2109 73.4546 85.2109 73.3979 85.2109 73.3766C85.2109 73.1216 85.1517 72.9398 85.0308 72.8359C84.8697 72.6942 84.628 72.6234 84.3082 72.6234C84.0096 72.6234 83.7892 72.6753 83.6471 72.7792C83.5049 72.8831 83.4007 73.0673 83.3319 73.3318L82.7135 73.2468C82.7704 72.9823 82.8628 72.7674 82.9907 72.6069C83.1211 72.4439 83.3082 72.3211 83.5523 72.2314C83.7964 72.144 84.0807 72.0992 84.4006 72.0992C84.7205 72.0992 84.9787 72.137 85.1801 72.2125C85.3792 72.2881 85.5261 72.3802 85.6208 72.4935C85.7133 72.6069 85.7796 72.7509 85.8199 72.9233C85.8412 73.0319 85.8507 73.2255 85.8507 73.5018V74.3377C85.8507 74.9209 85.8649 75.2916 85.891 75.4475C85.917 75.6033 85.9692 75.7544 86.045 75.8961H85.3839C85.3199 75.7686 85.2796 75.6128 85.2607 75.4357ZM82.197 75.3388L82.2823 75.8961C82.1046 75.9339 81.9458 75.9528 81.806 75.9528C81.5762 75.9528 81.3985 75.9174 81.2729 75.8442C81.1473 75.771 81.0573 75.6765 81.0075 75.5584C80.9554 75.4404 80.9317 75.1924 80.9317 74.8123V72.6682H80.4649V72.1795H80.9317V71.2586L81.5643 70.8808V72.1795H82.197V72.6682H81.5643V74.8477C81.5643 75.0272 81.5762 75.1452 81.5975 75.1948C81.6188 75.2468 81.6544 75.2869 81.7065 75.3176C81.7562 75.3483 81.8297 75.3625 81.9221 75.3625C81.9908 75.3648 82.0832 75.3554 82.197 75.3388ZM76.9723 74.791L77.5978 74.6895C77.6334 74.9398 77.7305 75.1311 77.8916 75.2633C78.0528 75.3955 78.2779 75.464 78.5646 75.464C78.856 75.464 79.0716 75.405 79.2138 75.2869C79.3536 75.1688 79.4247 75.0319 79.4247 74.8713C79.4247 74.7296 79.3607 74.6163 79.2351 74.536C79.1475 74.4793 78.9295 74.4085 78.5883 74.3211C78.1262 74.2054 77.804 74.1039 77.6263 74.0189C77.4485 73.9339 77.3111 73.8158 77.2187 73.6647C77.1263 73.5159 77.0789 73.3483 77.0789 73.1665C77.0789 73.0012 77.1168 72.8477 77.1926 72.706C77.2685 72.5644 77.3727 72.4487 77.503 72.3542C77.6026 72.2834 77.7353 72.222 77.9059 72.1724C78.0765 72.1228 78.2565 72.0968 78.4508 72.0968C78.7446 72.0968 79.0005 72.1393 79.2209 72.2243C79.4436 72.307 79.6048 72.4227 79.7114 72.5667C79.8156 72.7108 79.8891 72.9044 79.9294 73.1452L79.311 73.2302C79.2825 73.0366 79.202 72.8855 79.0669 72.7769C78.9318 72.6682 78.7423 72.6139 78.4982 72.6139C78.2091 72.6139 78.0006 72.6612 77.8774 72.758C77.7542 72.8548 77.6926 72.9658 77.6926 73.0933C77.6926 73.1736 77.7187 73.2491 77.7684 73.3152C77.8205 73.3814 77.9011 73.438 78.0101 73.4829C78.0741 73.5065 78.2589 73.5608 78.5669 73.6435C79.0124 73.7615 79.3252 73.8607 79.5029 73.9339C79.6806 74.0071 79.8204 74.1204 79.9199 74.2645C80.0218 74.4085 80.0715 74.588 80.0715 74.8028C80.0715 75.013 80.0099 75.209 79.8867 75.3955C79.7635 75.5797 79.5858 75.7237 79.3536 75.8253C79.1214 75.9268 78.8584 75.9764 78.5646 75.9764C78.0812 75.9764 77.7092 75.8749 77.4557 75.6765C77.2069 75.4805 77.0434 75.183 76.9723 74.791ZM73.2238 75.9008V72.1795H73.7924V72.7084C74.0649 72.3023 74.4606 72.1015 74.9796 72.1015C75.2047 72.1015 75.4108 72.1417 75.6004 72.222C75.7875 72.3022 75.9297 72.4085 76.0245 72.5384C76.1169 72.6683 76.1832 72.8241 76.2212 73.0036C76.2449 73.1216 76.2567 73.3247 76.2567 73.6175V75.9032H75.6241V73.6411C75.6241 73.3837 75.6004 73.1924 75.5506 73.0649C75.5008 72.9374 75.4132 72.8359 75.29 72.7603C75.1644 72.6848 75.0175 72.647 74.8492 72.647C74.5815 72.647 74.3493 72.732 74.1526 72.902C73.9559 73.072 73.8588 73.3955 73.8588 73.8701V75.9008H73.2238ZM71.6244 75.9008V74.5691V72.1795H72.257V75.9008H71.6244ZM71.6244 71.4852V70.7674H72.257V71.4852H71.6244ZM66.0348 74.0449C66.0348 74.5195 66.1367 74.876 66.3381 75.1122C66.5395 75.3483 66.7788 75.464 67.0537 75.464C67.3309 75.464 67.5655 75.3507 67.7598 75.1263C67.9517 74.902 68.0489 74.5596 68.0489 74.0968C68.0489 73.5891 67.9493 73.2161 67.7527 72.9799C67.556 72.7414 67.3119 72.6234 67.0229 72.6234C66.7409 72.6234 66.5063 72.7367 66.3168 72.9658C66.1296 73.1948 66.0348 73.5537 66.0348 74.0449ZM68.0346 75.9008V75.4286C67.7977 75.7946 67.4517 75.9788 66.9921 75.9788C66.6935 75.9788 66.421 75.8985 66.1722 75.7332C65.9234 75.5703 65.7291 75.3436 65.5917 75.0508C65.4543 74.758 65.3856 74.4227 65.3856 74.0425C65.3856 73.6718 65.4472 73.3365 65.5704 73.0342C65.696 72.7344 65.8808 72.5006 66.1296 72.34C66.376 72.1795 66.6556 72.0992 66.9613 72.0992C67.1864 72.0992 67.3878 72.1464 67.5631 72.2409C67.7385 72.3353 67.8806 72.4605 67.992 72.6116V70.7651H68.6246V75.8985H68.0346V75.9008ZM61.6228 75.9008V72.1795H62.1915V72.7084C62.464 72.3023 62.8597 72.1015 63.3786 72.1015C63.6037 72.1015 63.8099 72.1417 63.9994 72.222C64.1866 72.3022 64.3288 72.4085 64.4236 72.5384C64.516 72.6683 64.5823 72.8241 64.6202 73.0036C64.6439 73.1216 64.6558 73.3247 64.6558 73.6175V75.9032H64.0231V73.6411C64.0231 73.3837 63.9994 73.1924 63.9497 73.0649C63.8999 72.9374 63.8122 72.8359 63.689 72.7603C63.5634 72.6848 63.4165 72.647 63.2483 72.647C62.9805 72.647 62.7483 72.732 62.5517 72.902C62.355 73.072 62.2579 73.3955 62.2579 73.8701V75.9008H61.6228ZM60.0092 74.0378C59.7794 74.1299 59.4334 74.2102 58.9738 74.2739C58.7131 74.3117 58.5283 74.3518 58.4193 74.3991C58.3103 74.4463 58.2298 74.5148 58.1705 74.6021C58.1113 74.6919 58.0829 74.791 58.0829 74.902C58.0829 75.0673 58.1468 75.209 58.2748 75.32C58.4027 75.4309 58.5899 75.4876 58.8363 75.4876C59.0804 75.4876 59.296 75.4357 59.4879 75.3294C59.6775 75.2231 59.8173 75.0791 59.9073 74.8973C59.9761 74.7556 60.0092 74.5455 60.0092 74.2692V74.0378ZM60.059 75.4357C59.8244 75.6364 59.5969 75.7757 59.3813 75.8583C59.1633 75.941 58.9311 75.9811 58.6823 75.9811C58.2724 75.9811 57.9573 75.8819 57.7369 75.6812C57.5165 75.4829 57.4052 75.2279 57.4052 74.9185C57.4052 74.7367 57.4478 74.5714 57.5308 74.4203C57.6137 74.2692 57.7251 74.1511 57.8577 74.059C57.9928 73.9693 58.1445 73.8985 58.3127 73.8512C58.4383 73.8182 58.6255 73.7875 58.8766 73.7568C59.3884 73.6978 59.7652 73.6246 60.0069 73.5396C60.0092 73.4546 60.0116 73.3979 60.0116 73.3766C60.0116 73.1216 59.9524 72.9398 59.8315 72.8359C59.6704 72.6942 59.4287 72.6234 59.1088 72.6234C58.8103 72.6234 58.5899 72.6753 58.4478 72.7792C58.3056 72.8831 58.2013 73.0673 58.1326 73.3318L57.5142 73.2468C57.571 72.9823 57.6635 72.7674 57.7914 72.6069C57.9217 72.4439 58.1089 72.3211 58.353 72.2314C58.597 72.144 58.8814 72.0992 59.2012 72.0992C59.5211 72.0992 59.7794 72.137 59.9808 72.2125C60.1798 72.2881 60.3267 72.3802 60.4215 72.4935C60.5139 72.6069 60.5803 72.7509 60.6206 72.9233C60.6419 73.0319 60.6514 73.2255 60.6514 73.5018V74.3377C60.6514 74.9209 60.6656 75.2916 60.6916 75.4475C60.7177 75.6033 60.7698 75.7544 60.8457 75.8961H60.1846C60.1182 75.7686 60.0779 75.6128 60.059 75.4357ZM27.9621 73.686H30.0425C30.0141 73.3719 29.9335 73.1381 29.8032 72.9823C29.6018 72.7391 29.3412 72.6187 29.0213 72.6187C28.7322 72.6187 28.4882 72.7155 28.2891 72.9091C28.0925 73.1027 27.9835 73.3601 27.9621 73.686ZM30.0331 74.6966L30.687 74.7816C30.5851 75.1594 30.3956 75.4546 30.116 75.6647C29.8388 75.8749 29.4833 75.9788 29.0497 75.9788C28.5047 75.9788 28.0735 75.8111 27.7536 75.4758C27.4337 75.1429 27.275 74.673 27.275 74.0685C27.275 73.4451 27.4361 72.9587 27.7584 72.6163C28.0806 72.2716 28.5 72.0992 29.0142 72.0992C29.5118 72.0992 29.9193 72.2668 30.2345 72.6069C30.5496 72.9445 30.7084 73.4215 30.7084 74.0331C30.7084 74.0708 30.706 74.1275 30.7036 74.2007H27.9219C27.9455 74.6092 28.0617 74.9209 28.2702 75.1381C28.4787 75.3554 28.7369 75.464 29.0473 75.464C29.2796 75.464 29.4762 75.4026 29.6397 75.2822C29.808 75.1594 29.9383 74.9658 30.0331 74.6966ZM24.9079 75.9008L23.498 72.1795H24.1757L24.9742 74.4085C25.0595 74.6494 25.1401 74.8997 25.2135 75.157C25.2704 74.961 25.3486 74.7249 25.4505 74.4487L26.2798 72.1771H26.929L25.5145 75.8985H24.9079V75.9008ZM22.2896 75.9008V72.1795H22.9223V75.9008H22.2896ZM22.2896 71.4852V70.7674H22.9223V71.4852H22.2896ZM18.4392 74.791L19.0648 74.6895C19.1003 74.9398 19.1975 75.1311 19.3586 75.2633C19.5197 75.3955 19.7448 75.464 20.0315 75.464C20.323 75.464 20.5386 75.405 20.6807 75.2869C20.8205 75.1688 20.8916 75.0319 20.8916 74.8713C20.8916 74.7296 20.8277 74.6163 20.7021 74.536C20.6144 74.4793 20.3964 74.4085 20.0552 74.3211C19.5932 74.2054 19.2709 74.1039 19.0932 74.0189C18.9155 73.9339 18.7781 73.8158 18.6857 73.6647C18.5932 73.5159 18.5459 73.3483 18.5459 73.1665C18.5459 73.0012 18.5838 72.8477 18.6596 72.706C18.7354 72.5644 18.8397 72.4487 18.97 72.3542C19.0695 72.2834 19.2022 72.222 19.3728 72.1724C19.5434 72.1228 19.7235 72.0968 19.9178 72.0968C20.2116 72.0968 20.4675 72.1393 20.6879 72.2243C20.9106 72.307 21.0717 72.4227 21.1783 72.5667C21.2826 72.7108 21.356 72.9044 21.3963 73.1452L20.7779 73.2302C20.7495 73.0366 20.6689 72.8855 20.5338 72.7769C20.3988 72.6682 20.2092 72.6139 19.9652 72.6139C19.6761 72.6139 19.4676 72.6612 19.3444 72.758C19.2212 72.8548 19.1595 72.9658 19.1595 73.0933C19.1595 73.1736 19.1856 73.2491 19.2354 73.3152C19.2875 73.3814 19.3681 73.438 19.4771 73.4829C19.541 73.5065 19.7259 73.5608 20.0339 73.6435C20.4793 73.7615 20.7921 73.8607 20.9698 73.9339C21.1475 74.0071 21.2873 74.1204 21.3869 74.2645C21.4887 74.4085 21.5385 74.588 21.5385 74.8028C21.5385 75.013 21.4769 75.209 21.3537 75.3955C21.2305 75.5797 21.0528 75.7237 20.8205 75.8253C20.5883 75.9268 20.3253 75.9764 20.0315 75.9764C19.5481 75.9764 19.1761 75.8749 18.9226 75.6765C18.6738 75.4805 18.5103 75.183 18.4392 74.791ZM17.1289 75.9008V75.3483C16.8398 75.771 16.4465 75.9811 15.9465 75.9811C15.7262 75.9811 15.5224 75.9386 15.3305 75.856C15.1409 75.771 14.9988 75.6671 14.9063 75.5396C14.8139 75.4121 14.75 75.2562 14.712 75.072C14.686 74.9469 14.6741 74.7509 14.6741 74.4841V72.1818H15.3068V74.2409C15.3068 74.5691 15.321 74.791 15.3447 74.9044C15.385 75.0697 15.4679 75.1995 15.5982 75.294C15.7262 75.3884 15.8849 75.4357 16.0745 75.4357C16.2641 75.4357 16.4418 75.3884 16.6076 75.2916C16.7735 75.1948 16.8896 75.0626 16.9607 74.8949C17.0294 74.7296 17.0649 74.4864 17.0649 74.17V72.1795H17.6976V75.9008H17.1289ZM13.0771 75.9008V70.7674H13.7098V75.9008H13.0771ZM11.9327 74.5384L12.5511 74.6234C12.4824 75.0484 12.3094 75.379 12.0298 75.6198C11.7502 75.8607 11.4066 75.9788 10.9991 75.9788C10.4897 75.9788 10.0797 75.8135 9.76933 75.4805C9.45893 75.1476 9.30492 74.673 9.30492 74.0543C9.30492 73.6529 9.37126 73.3034 9.50632 73.0012C9.63901 72.7013 9.84278 72.4746 10.1153 72.3259C10.3878 72.1747 10.6839 72.0992 11.0062 72.0992C11.4114 72.0992 11.7431 72.2007 11.999 72.4061C12.2573 72.6116 12.4231 72.902 12.4942 73.2751L11.8829 73.3672C11.8237 73.1169 11.7218 72.9304 11.5701 72.8028C11.4209 72.6777 11.2408 72.6139 11.0299 72.6139C10.71 72.6139 10.4517 72.7273 10.2527 72.954C10.0537 73.183 9.95415 73.5419 9.95415 74.0331C9.95415 74.5337 10.0489 74.8949 10.2409 75.1216C10.4328 75.3483 10.6839 75.4616 10.992 75.4616C11.2408 75.4616 11.4493 75.3861 11.6151 75.235C11.7834 75.0862 11.8876 74.8548 11.9327 74.5384ZM5.464 75.9008L6.82645 73.974L5.56352 72.1795H6.34071L6.93071 73.0579C7.0397 73.2231 7.12737 73.3577 7.18661 73.4616C7.29323 73.3129 7.38801 73.1783 7.47331 73.0555L8.09412 72.1771H8.86656L7.59653 73.9717L8.94949 75.8985H8.17942L7.40697 74.7509L7.23163 74.4746L6.23408 75.8985H5.464V75.9008ZM1.18948 75.9008V70.7674H4.90955V71.3695H1.87425V72.9469H4.71762V73.549H1.87425V75.2987H5.03276V75.9008H1.18948Z" fill="#231F20"/>
<path d="M110.977 74.7178L111.45 74.6753C111.472 74.8666 111.524 75.0224 111.607 75.1452C111.69 75.268 111.818 75.3648 111.988 75.4427C112.161 75.5183 112.356 75.5561 112.571 75.5561C112.763 75.5561 112.931 75.5277 113.078 75.4711C113.225 75.4144 113.334 75.3341 113.405 75.235C113.476 75.1358 113.514 75.0272 113.514 74.9091C113.514 74.791 113.479 74.6871 113.41 74.5974C113.341 74.51 113.228 74.4345 113.066 74.3731C112.965 74.3353 112.739 74.2716 112.389 74.1889C112.038 74.1063 111.794 74.026 111.654 73.9528C111.472 73.8583 111.339 73.7403 111.249 73.5986C111.159 73.4593 111.116 73.3011 111.116 73.1263C111.116 72.9351 111.171 72.7556 111.28 72.588C111.389 72.4203 111.548 72.2952 111.756 72.2078C111.965 72.1204 112.197 72.0779 112.453 72.0779C112.735 72.0779 112.983 72.1228 113.199 72.2149C113.415 72.3046 113.581 72.4392 113.697 72.6139C113.813 72.7887 113.874 72.9894 113.884 73.2113L113.401 73.2491C113.374 73.0106 113.287 72.8288 113.138 72.7084C112.988 72.5856 112.765 72.5242 112.474 72.5242C112.168 72.5242 111.948 72.5809 111.808 72.6919C111.668 72.8028 111.6 72.9374 111.6 73.0933C111.6 73.2302 111.649 73.3412 111.747 73.4286C111.844 73.5159 112.097 73.6057 112.505 73.6978C112.915 73.7898 113.194 73.8701 113.346 73.9386C113.566 74.0401 113.73 74.1677 113.837 74.3235C113.941 74.4793 113.993 74.6588 113.993 74.8619C113.993 75.0649 113.936 75.2538 113.82 75.4309C113.704 75.608 113.538 75.7473 113.322 75.8465C113.104 75.9457 112.863 75.9953 112.59 75.9953C112.247 75.9953 111.96 75.9457 111.728 75.8465C111.495 75.7473 111.313 75.5962 111.18 75.3955C111.055 75.1995 110.984 74.9728 110.977 74.7178Z" fill="#231F20"/>
<path d="M72.2547 70.7674H71.6054V75.8961H72.2547V70.7674Z" fill="#231F20"/>
<path d="M51.799 75.9032V72.1936H52.3653V72.7202C52.6378 72.3164 53.0311 72.1157 53.5477 72.1157C53.7728 72.1157 53.9789 72.1559 54.1661 72.2361C54.3533 72.3164 54.4955 72.4227 54.5879 72.5525C54.6803 72.6824 54.7466 72.8383 54.7845 73.0154C54.8082 73.1311 54.8201 73.3365 54.8201 73.6269V75.9032H54.1898V73.6505C54.1898 73.3955 54.1661 73.2019 54.1164 73.0767C54.0666 72.9516 53.9813 72.8501 53.8557 72.7721C53.7325 72.6966 53.5832 72.6588 53.4174 72.6588C53.1496 72.6588 52.9198 72.7438 52.7231 72.9138C52.5288 73.0838 52.4317 73.405 52.4317 73.8796V75.9032H51.799ZM48.2851 73.6954H50.3584C50.3299 73.3837 50.2517 73.1499 50.1214 72.9941C49.9224 72.7533 49.6617 72.6305 49.3419 72.6305C49.0528 72.6305 48.8111 72.7273 48.6121 72.9209C48.413 73.1145 48.3064 73.3719 48.2851 73.6954ZM50.3489 74.7037L51.0005 74.7887C50.8986 75.1665 50.7091 75.4593 50.4318 75.6694C50.1546 75.8772 49.8015 75.9835 49.3703 75.9835C48.8277 75.9835 48.3965 75.8158 48.0789 75.4829C47.7614 75.1499 47.6027 74.6824 47.6027 74.0803C47.6027 73.4593 47.7638 72.9752 48.0837 72.6328C48.4059 72.2881 48.823 72.1181 49.3348 72.1181C49.83 72.1181 50.2352 72.2857 50.5503 72.6234C50.8654 72.961 51.0218 73.4333 51.0218 74.0449C51.0218 74.0826 51.0195 74.137 51.0195 74.2125H48.2472C48.2709 74.6187 48.387 74.9303 48.5931 75.1452C48.7993 75.3601 49.0599 75.4687 49.3679 75.4687C49.5978 75.4687 49.7968 75.4073 49.9579 75.2869C50.1238 75.1641 50.2541 74.9705 50.3489 74.7037ZM43.8921 75.9032V75.3908L46.2497 72.68C45.982 72.6942 45.7474 72.7013 45.5436 72.7013H44.0366V72.1936H47.0695V72.6068L45.0531 74.9587L44.6669 75.3955C44.9512 75.3719 45.2166 75.3601 45.463 75.3601H47.1856V75.9032H43.8921ZM40.6459 74.0519C40.6459 74.5266 40.7502 74.8808 40.9587 75.1145C41.1672 75.3506 41.4302 75.4687 41.7453 75.4687C42.0581 75.4687 42.3188 75.3506 42.5273 75.1145C42.7358 74.8784 42.84 74.5171 42.84 74.0331C42.84 73.575 42.7358 73.2302 42.5249 72.9941C42.3164 72.758 42.0557 72.6399 41.7453 72.6399C41.4278 72.6399 41.1672 72.7556 40.9587 72.9917C40.7502 73.2255 40.6459 73.5773 40.6459 74.0519ZM40.0014 74.0496C40.0014 73.3648 40.1933 72.8571 40.5772 72.5266C40.8971 72.2527 41.288 72.1157 41.7477 72.1157C42.2571 72.1157 42.6765 72.2834 43.0012 72.6163C43.3258 72.9492 43.4869 73.4097 43.4869 73.9976C43.4869 74.4746 43.4158 74.8477 43.2713 75.1216C43.1267 75.3932 42.9182 75.6057 42.6434 75.7568C42.3709 75.9079 42.07 75.9835 41.7453 75.9835C41.2241 75.9835 40.8047 75.8182 40.4824 75.4852C40.1625 75.1523 40.0014 74.673 40.0014 74.0496ZM37.8428 75.9032V72.1936H38.4091V72.7627C38.5537 72.5006 38.6887 72.3259 38.8096 72.2432C38.9328 72.1582 39.0678 72.1181 39.2147 72.1181C39.428 72.1181 39.6436 72.1842 39.864 72.3164L39.6389 72.8973C39.4849 72.8123 39.3332 72.7698 39.1792 72.7698C39.0418 72.7698 38.9186 72.8123 38.8096 72.8926C38.7006 72.9752 38.6224 73.0886 38.5774 73.2349C38.5063 73.4569 38.4731 73.7025 38.4731 73.9669V75.9056H37.8428V75.9032ZM33.5849 75.9032V70.7863H37.0491V71.3861H34.2673V72.9799H36.677V73.5797H34.2673V75.9008H33.5849V75.9032Z" fill="#231F20"/>
</g>
<defs>
<clipPath id="clip0_286_115">
<rect width="114" height="76" fill="white"/>
</clipPath>
</defs>
</svg>
