<svg width="19" height="29" viewBox="0 0 19 29" fill="none" xmlns="http://www.w3.org/2000/svg">
<g clip-path="url(#clip0_335_2367)">
<path d="M1.79199 8.41736C1.79199 8.2616 1.91943 8.13416 2.0752 8.13416H3.23916C3.39492 8.13416 3.52236 8.2616 3.52236 8.41736V20.5826C3.52236 20.7384 3.39492 20.8658 3.23916 20.8658H2.0752C1.91943 20.8658 1.79199 20.7384 1.79199 20.5826V8.41736Z" fill="#FF5500"/>
<path d="M1.79199 8.41736C1.79199 8.2616 1.91943 8.13416 2.0752 8.13416H3.23916C3.39492 8.13416 3.52236 8.2616 3.52236 8.41736V20.5826C3.52236 20.7384 3.39492 20.8658 3.23916 20.8658H2.0752C1.91943 20.8658 1.79199 20.7384 1.79199 20.5826V8.41736Z" fill="#FF5500"/>
<path d="M4.50293 8.41736C4.50293 8.2616 4.63037 8.13416 4.78613 8.13416H5.2409C5.39666 8.13416 5.5241 8.2616 5.5241 8.41736V20.5826C5.5241 20.7384 5.39666 20.8658 5.2409 20.8658H4.78613C4.63037 20.8658 4.50293 20.7384 4.50293 20.5826V8.41736Z" fill="#FF5500"/>
<path d="M4.50293 8.41736C4.50293 8.2616 4.63037 8.13416 4.78613 8.13416H5.2409C5.39666 8.13416 5.5241 8.2616 5.5241 8.41736V20.5826C5.5241 20.7384 5.39666 20.8658 5.2409 20.8658H4.78613C4.63037 20.8658 4.50293 20.7384 4.50293 20.5826V8.41736Z" fill="#FF5500"/>
<path d="M6.50439 8.41736C6.50439 8.2616 6.63184 8.13416 6.7876 8.13416H8.36504C8.5208 8.13416 8.64824 8.2616 8.64824 8.41736V20.5826C8.64824 20.7384 8.5208 20.8658 8.36504 20.8658H6.7876C6.63184 20.8658 6.50439 20.7384 6.50439 20.5826V8.41736Z" fill="#FF5500"/>
<path d="M6.50439 8.41736C6.50439 8.2616 6.63184 8.13416 6.7876 8.13416H8.36504C8.5208 8.13416 8.64824 8.2616 8.64824 8.41736V20.5826C8.64824 20.7384 8.5208 20.8658 8.36504 20.8658H6.7876C6.63184 20.8658 6.50439 20.7384 6.50439 20.5826V8.41736Z" fill="#FF5500"/>
<path d="M9.62891 8.41736C9.62891 8.2616 9.75635 8.13416 9.91211 8.13416H10.5742C10.7299 8.13416 10.8574 8.2616 10.8574 8.41736V20.5826C10.8574 20.7384 10.7299 20.8658 10.5742 20.8658H9.91211C9.75635 20.8658 9.62891 20.7384 9.62891 20.5826V8.41736Z" fill="#FF5500"/>
<path d="M9.62891 8.41736C9.62891 8.2616 9.75635 8.13416 9.91211 8.13416H10.5742C10.7299 8.13416 10.8574 8.2616 10.8574 8.41736V20.5826C10.8574 20.7384 10.7299 20.8658 10.5742 20.8658H9.91211C9.75635 20.8658 9.62891 20.7384 9.62891 20.5826V8.41736Z" fill="#FF5500"/>
<path d="M11.8379 8.41736C11.8379 8.2616 11.9653 8.13416 12.1211 8.13416H12.4433C12.5991 8.13416 12.7265 8.2616 12.7265 8.41736V20.5826C12.7265 20.7384 12.5991 20.8658 12.4433 20.8658H12.1211C11.9653 20.8658 11.8379 20.7384 11.8379 20.5826V8.41736Z" fill="#FF5500"/>
<path d="M11.8379 8.41736C11.8379 8.2616 11.9653 8.13416 12.1211 8.13416H12.4433C12.5991 8.13416 12.7265 8.2616 12.7265 8.41736V20.5826C12.7265 20.7384 12.5991 20.8658 12.4433 20.8658H12.1211C11.9653 20.8658 11.8379 20.7384 11.8379 20.5826V8.41736Z" fill="#FF5500"/>
<path d="M13.707 8.41736C13.707 8.2616 13.8345 8.13416 13.9902 8.13416H15.7285C15.8843 8.13416 16.0117 8.2616 16.0117 8.41736V20.5826C16.0117 20.7384 15.8843 20.8658 15.7285 20.8658H13.9902C13.8345 20.8658 13.707 20.7384 13.707 20.5826V8.41736Z" fill="#FF5500"/>
<path d="M13.707 8.41736C13.707 8.2616 13.8345 8.13416 13.9902 8.13416H15.7285C15.8843 8.13416 16.0117 8.2616 16.0117 8.41736V20.5826C16.0117 20.7384 15.8843 20.8658 15.7285 20.8658H13.9902C13.8345 20.8658 13.707 20.7384 13.707 20.5826V8.41736Z" fill="#FF5500"/>
<path d="M16.9922 8.41736C16.9922 8.2616 17.1196 8.13416 17.2754 8.13416H17.9942C18.1499 8.13416 18.2774 8.2616 18.2774 8.41736V20.5826C18.2774 20.7384 18.1499 20.8658 17.9942 20.8658H17.2754C17.1196 20.8658 16.9922 20.7384 16.9922 20.5826V8.41736Z" fill="#FF5500"/>
<path d="M16.9922 8.41736C16.9922 8.2616 17.1196 8.13416 17.2754 8.13416H17.9942C18.1499 8.13416 18.2774 8.2616 18.2774 8.41736V20.5826C18.2774 20.7384 18.1499 20.8658 17.9942 20.8658H17.2754C17.1196 20.8658 16.9922 20.7384 16.9922 20.5826V8.41736Z" fill="#FF5500"/>
</g>
<defs>
<clipPath id="clip0_335_2367">
<rect width="19" height="29" fill="white"/>
</clipPath>
</defs>
</svg>
