<svg width="20" height="20" viewBox="0 0 20 20" fill="none" xmlns="http://www.w3.org/2000/svg">
<path d="M7.06675 19.5833H5.43341C5.20508 19.5833 4.99216 19.4933 4.83383 19.3292C4.67508 19.165 4.59216 18.9479 4.60008 18.7187L4.96008 8.90916C3.7255 8.39582 2.91675 7.19749 2.91675 5.83332C2.91675 3.62457 4.2155 0.416656 6.25008 0.416656C8.28466 0.416656 9.58341 3.62457 9.58341 5.83332C9.58341 7.19749 8.77466 8.39582 7.54008 8.90916L7.90008 18.7183C7.908 18.9483 7.82508 19.1654 7.66633 19.3296C7.508 19.4937 7.29508 19.5833 7.06675 19.5833ZM6.25008 1.24999C4.96258 1.24999 3.75008 3.83207 3.75008 5.83332C3.75008 6.93832 4.45758 7.89874 5.51008 8.22249C5.6905 8.27791 5.81091 8.44749 5.80425 8.63582L5.43341 18.7483L7.06675 18.7496L6.69591 8.63582C6.68883 8.44749 6.80966 8.27791 6.99008 8.22249C8.04258 7.89874 8.75008 6.93832 8.75008 5.83332C8.75008 3.83207 7.53758 1.24999 6.25008 1.24999Z" fill="#FF5500"/>
<path d="M14.9834 19.5833H13.3501C13.1217 19.5833 12.9088 19.4929 12.7509 19.3292C12.5922 19.1646 12.5092 18.9479 12.5172 18.7188L12.8817 8.86792C12.6001 8.73042 12.3359 8.54126 12.1059 8.31167C11.5547 7.76542 11.2505 7.03292 11.2505 6.25001C11.2505 5.95751 11.2634 5.67292 11.2897 5.37959L11.6688 1.21251C11.6897 0.983757 11.888 0.817507 12.1217 0.835423C12.3509 0.856257 12.5197 1.05917 12.4988 1.28834L12.1197 5.45501C12.0955 5.72292 12.0838 5.98334 12.0838 6.25042C12.0838 6.80917 12.3005 7.33167 12.6938 7.72126C12.9142 7.94167 13.1742 8.10792 13.4463 8.20292C13.6188 8.26334 13.7322 8.42876 13.7251 8.61167L13.3501 18.7492L14.9834 18.7504L14.6088 8.61167C14.6022 8.42917 14.7151 8.26334 14.8876 8.20292C15.1597 8.10751 15.4197 7.94167 15.6388 7.72251C16.0334 7.33167 16.2501 6.80917 16.2501 6.25042C16.2501 5.98334 16.2384 5.72292 16.2142 5.45417L15.8351 1.28792C15.8142 1.05876 15.983 0.85584 16.2122 0.835006C16.4409 0.817506 16.6442 0.98334 16.6651 1.21209L17.0442 5.37876C17.0705 5.67292 17.0834 5.95751 17.0834 6.25001C17.0834 7.03251 16.7792 7.76542 16.2267 8.31292C15.9976 8.54167 15.7334 8.73042 15.4522 8.86834L15.8167 18.7183C15.8247 18.9483 15.7417 19.1654 15.583 19.3296C15.4251 19.4933 15.2122 19.5838 14.9838 19.5838L14.9834 19.5833Z" fill="#FF5500"/>
<path d="M15 5.83333C14.7746 5.83333 14.5892 5.65374 14.5838 5.42708L14.4796 1.26041C14.4738 1.03041 14.6555 0.83916 14.8859 0.833744C15.1159 0.816244 15.3071 1.00958 15.3125 1.23999L15.4167 5.40666C15.4225 5.63666 15.2409 5.82791 15.0105 5.83333C15.0071 5.83333 15.0034 5.83333 15 5.83333Z" fill="#FF5500"/>
<path d="M13.3333 5.83334C13.33 5.83334 13.3262 5.83334 13.3229 5.83334C13.0929 5.8275 12.9108 5.63667 12.9166 5.40667L13.0208 1.24C13.0266 1.01 13.2187 0.816671 13.4475 0.833755C13.6775 0.839588 13.8596 1.03042 13.8537 1.26042L13.7496 5.42709C13.7441 5.65334 13.5587 5.83334 13.3333 5.83334Z" fill="#FF5500"/>
</svg>
