<svg width="50" height="50" viewBox="0 0 50 50" fill="none" xmlns="http://www.w3.org/2000/svg">
<path d="M40.6253 14.5833H37.5003V12.5C37.4987 10.8429 36.8397 9.25415 35.6679 8.08241C34.4962 6.91067 32.9074 6.25165 31.2503 6.25H9.37533C7.99399 6.25 6.66923 6.79873 5.69248 7.77549C4.71573 8.75224 4.16699 10.077 4.16699 11.4583V37.5C4.16865 39.1571 4.82766 40.7458 5.9994 41.9176C7.17115 43.0893 8.7599 43.7483 10.417 43.75H40.6253C42.0067 43.75 43.3314 43.2013 44.3082 42.2245C45.2849 41.2478 45.8337 39.923 45.8337 38.5417V19.7917C45.8337 18.4103 45.2849 17.0856 44.3082 16.1088C43.3314 15.1321 42.0067 14.5833 40.6253 14.5833ZM9.37533 8.33333H31.2503C32.3549 8.33499 33.4137 8.7745 34.1948 9.55555C34.9758 10.3366 35.4153 11.3954 35.417 12.5V14.5833H9.37533C8.96494 14.5833 8.55858 14.5025 8.17944 14.3455C7.8003 14.1884 7.4558 13.9582 7.16562 13.668C6.87543 13.3779 6.64525 13.0334 6.4882 12.6542C6.33116 12.2751 6.25033 11.8687 6.25033 11.4583C6.25033 11.048 6.33116 10.6416 6.4882 10.2624C6.64525 9.88331 6.87543 9.53881 7.16562 9.24862C7.4558 8.95844 7.8003 8.72826 8.17944 8.57121C8.55858 8.41416 8.96494 8.33333 9.37533 8.33333ZM43.7503 33.3333H39.5837C38.4786 33.3333 37.4188 32.8943 36.6374 32.1129C35.856 31.3315 35.417 30.2717 35.417 29.1667C35.417 28.0616 35.856 27.0018 36.6374 26.2204C37.4188 25.439 38.4786 25 39.5837 25H43.7503V33.3333ZM43.7503 22.9167H39.5837C38.7629 22.9167 37.9502 23.0783 37.1919 23.3924C36.4336 23.7065 35.7446 24.1669 35.1642 24.7472C34.5839 25.3276 34.1235 26.0166 33.8094 26.7749C33.4953 27.5332 33.3337 28.3459 33.3337 29.1667C33.3337 29.9874 33.4953 30.8002 33.8094 31.5584C34.1235 32.3167 34.5839 33.0057 35.1642 33.5861C35.7446 34.1665 36.4336 34.6268 37.1919 34.9409C37.9502 35.255 38.7629 35.4167 39.5837 35.4167H43.7503V38.5417C43.7503 39.3705 43.4211 40.1653 42.835 40.7514C42.249 41.3374 41.4541 41.6667 40.6253 41.6667H10.417C9.31243 41.665 8.25358 41.2255 7.47254 40.4445C6.6915 39.6634 6.25198 38.6046 6.25033 37.5V15.6229C7.15033 16.3021 8.24824 16.6687 9.37533 16.6667H40.6253C41.4541 16.6667 42.249 16.9959 42.835 17.582C43.4211 18.168 43.7503 18.9629 43.7503 19.7917V22.9167Z" fill="#666666"/>
</svg>
