<svg width="22" height="22" viewBox="0 0 22 22" fill="none" xmlns="http://www.w3.org/2000/svg">
<g clip-path="url(#clip0_335_2293)">
<path d="M21.3574 17.3169L19.7277 8.09213C19.3904 6.18282 17.7383 4.79703 15.7994 4.79703H13.4938C13.8424 4.30152 14.0479 3.69845 14.0479 3.0479C14.048 1.36731 12.6806 0 11 0C9.31939 0 7.95204 1.36731 7.95204 3.04795C7.95204 3.69849 8.15756 4.30156 8.50616 4.79707H6.20055C4.26171 4.79707 2.6096 6.18286 2.27226 8.09218L0.642538 17.3169C0.436846 18.4813 0.754729 19.6686 1.51459 20.5745C2.27449 21.4805 3.38841 22 4.57087 22H17.4292C18.6116 22 19.7256 21.4804 20.4854 20.5746C21.2453 19.6686 21.5631 18.4813 21.3574 17.3169ZM11 1.29882C11.9645 1.29882 12.7491 2.08347 12.7491 3.04795C12.7491 4.01242 11.9644 4.79707 11 4.79707C10.0356 4.79707 9.25085 4.01242 9.25085 3.04795C9.25085 2.08347 10.0355 1.29882 11 1.29882ZM19.4903 19.7398C18.9778 20.3508 18.2266 20.7012 17.4292 20.7012H4.57087C3.77346 20.7012 3.02219 20.3508 2.50974 19.7398C1.9973 19.1289 1.78289 18.3281 1.92163 17.5429L3.55135 8.31815C3.77887 7.0305 4.89305 6.09585 6.20059 6.09585H15.7995C17.1071 6.09585 18.2213 7.03042 18.4487 8.31806L20.0785 17.5428C20.2172 18.3281 20.0027 19.1289 19.4903 19.7398Z" fill="#FF5500"/>
<path d="M8.86455 13.3985L10.4919 11.7169C10.7413 11.4592 10.7346 11.0481 10.4768 10.7986C10.2191 10.5491 9.80793 10.556 9.5585 10.8137L7.73856 12.6943V11.2653C7.73856 10.9066 7.44779 10.6158 7.08913 10.6158C6.73047 10.6158 6.4397 10.9066 6.4397 11.2653V15.5317C6.4397 15.8903 6.73047 16.1811 7.08913 16.1811C7.44779 16.1811 7.73856 15.8903 7.73856 15.5317V14.1027L9.5585 15.9833C9.68586 16.1149 9.85546 16.1811 10.0253 16.1811C10.1879 16.1811 10.3507 16.1204 10.4768 15.9984C10.7346 15.7489 10.7413 15.3379 10.4919 15.0801L8.86455 13.3985Z" fill="#FF5500"/>
<path d="M14.911 12.9326H13.9361C13.5775 12.9326 13.2867 13.2234 13.2867 13.5821C13.2867 13.9407 13.5775 14.2315 13.9361 14.2315H14.2509C14.189 14.6004 13.8675 14.8824 13.4812 14.8824C13.0509 14.8824 12.7009 14.5323 12.7009 14.102V12.6952C12.7009 12.2649 13.0509 11.9148 13.4812 11.9148C13.7233 11.9148 13.9477 12.0245 14.0971 12.2158C14.3177 12.4984 14.7258 12.5488 15.0086 12.3281C15.2912 12.1073 15.3416 11.6993 15.1209 11.4166C14.7238 10.9078 14.1261 10.616 13.4813 10.616C12.3348 10.616 11.4021 11.5488 11.4021 12.6952V14.1021C11.4021 15.2485 12.3348 16.1813 13.4813 16.1813C14.6277 16.1813 15.5604 15.2485 15.5604 14.1021V13.5822C15.5604 13.2234 15.2697 12.9326 14.911 12.9326Z" fill="#FF5500"/>
</g>
<defs>
<clipPath id="clip0_335_2293">
<rect width="22" height="22" fill="white"/>
</clipPath>
</defs>
</svg>
