<svg width="291" height="57" viewBox="0 0 291 57" fill="none" xmlns="http://www.w3.org/2000/svg">
<path fill-rule="evenodd" clip-rule="evenodd" d="M63.8817 16.5039L63.0858 10.2786L53.1167 10.3516L53.0134 49.9123C53.0195 51.531 50.3647 57.5555 64.2705 54.3242C64.5803 38.4597 61.0446 21.1591 71.9372 18.8893C88.0786 15.5302 83.7471 30.5488 83.8261 54.452L95.1864 54.6102C95.472 40.5166 92.3312 22.717 101.498 19.291C123.703 10.9906 111.334 49.4194 115.356 53.9408C116.492 55.2187 124.013 54.7562 126.108 54.2633C126.406 41.1312 128.757 17.1793 121.206 11.5626C117.16 8.55643 110.362 8.53209 105.854 9.9378C99.8521 11.806 97.8655 15.6276 94.8341 16.9846C90.1441 12.3172 89.4637 8.83636 79.7436 9.10412C69.3492 9.39621 69.4829 14.6539 63.8817 16.5039Z" fill="black"/>
<path fill-rule="evenodd" clip-rule="evenodd" d="M177.073 54.3729C177.226 48.564 175.84 40.3776 175.871 33.2328C175.895 26.2229 176.334 17.1112 175.651 10.3341C167.947 9.67236 173.496 12.7668 159.902 9.21279C154.646 7.84022 149.092 8.0608 144.275 10.0768C118.943 20.6897 128.539 65.0839 159.896 55.7087C167.276 53.5089 170.584 55.911 177.073 54.3729ZM164.462 19.072L164.523 44.9304C154.488 52.8778 141.022 47.4243 141.119 33.2512C141.205 19.7583 153.096 11.29 164.462 19.072Z" fill="black"/>
<path fill-rule="evenodd" clip-rule="evenodd" d="M46.9466 54.3985L46.0468 19.7024C46.0893 3.82467 44.5572 13.4256 33.2969 10.5216C23.9458 8.11069 15.3 6.60084 6.83655 15.8365C-1.54176 24.9808 -3.00705 40.822 6.89127 50.5691C17.8171 61.3267 30.7129 54.575 35.2972 54.4107C39.3466 54.2646 42.5386 55.1412 46.9466 54.3985ZM34.5737 18.9232C34.9932 23.885 35.9965 42.3745 33.8259 45.1994C29.7887 50.4595 18.2306 48.8096 14.0475 43.3486C9.14089 36.9317 10.5089 18.564 22.7602 16.6219C28.4876 15.7086 30.8041 17.4864 34.5737 18.9232Z" fill="#FF5500"/>
<path fill-rule="evenodd" clip-rule="evenodd" d="M252.243 19.2875L272.031 19.5865C271.6 25.506 250.437 50.2703 250.268 55.1524L288.945 55.2622C290.055 53.2301 291.261 49.1657 290.952 46.2792L269.267 46.2914C269.679 37.9187 288.982 18.3538 290.545 10.8049L254.316 10.7744L252.243 19.2875Z" fill="#FF5500"/>
<path fill-rule="evenodd" clip-rule="evenodd" d="M223.434 9.72701L216.499 10.0654L216.438 18.6797L223.183 19.2765C224.786 25.2818 223.128 37.6925 223.978 44.8854C225.417 57.0745 228.887 55.3885 241.037 54.9025C239.06 48.6941 233.796 54.4533 235.54 19.6395L242.934 19.1965L243.363 10.2008C240.921 9.86237 236.96 10.5638 235.859 8.76098C233.949 5.63525 239.935 -2.48058 223.899 0.743598L223.434 9.72701Z" fill="black"/>
<path fill-rule="evenodd" clip-rule="evenodd" d="M193.085 10.5361C190.439 10.0558 187.168 10.1045 184.322 10.5239C182.478 14.4693 183.594 52.5488 184.08 54.4638L194.553 54.5671C196.434 22.2384 188.297 22.7916 211.174 20.8219L211.605 9.5695C206.107 8.73667 202.151 10.834 198.971 13.3933C192.156 18.8827 193.94 17.5453 193.085 10.5361Z" fill="black"/>
</svg>
